<svg width="29" height="24" viewBox="0 0 29 24" fill="none" xmlns="http://www.w3.org/2000/svg">
<g clip-path="url(#clip0_16_877)">
<path d="M11.4824 0.000466441L5.37012 6.2757L6.57199 7.53134L12.6843 1.25611L11.4824 0.000466441Z" fill="#F3981A"/>
<path d="M17.8263 0.0297426L16.6139 1.27448L22.6731 7.60471L23.8855 6.35998L17.8263 0.0297426Z" fill="#F3981A"/>
<path d="M28.9781 11.3786L0 11.2473L0.0219494 5.99365L29 6.12247L28.9781 11.3786ZM1.70717 9.48681L27.2782 9.59795V7.87789L1.72181 7.76928L1.70717 9.48681Z" fill="#F3981A"/>
<path d="M24.7784 24.0025L4.37282 23.9091L2.09009 10.53L3.77287 10.2219L5.80441 22.1486L23.3444 22.2269L25.3491 10.3305L27.0295 10.6336L24.7784 24.0025Z" fill="#F3981A"/>
<path d="M9.24139 13.5413L9.21558 19.6688L10.9227 19.6765L10.9486 13.549L9.24139 13.5413Z" fill="#F3981A"/>
<path d="M13.6602 13.5921L13.6344 19.7195L15.3416 19.7273L15.3674 13.5998L13.6602 13.5921Z" fill="#F3981A"/>
<path d="M18.0792 13.6504L18.0533 19.7779L19.7605 19.7856L19.7863 13.6581L18.0792 13.6504Z" fill="#F3981A"/>
</g>
<defs>
<clipPath id="clip0_16_877">
<rect width="29" height="24" fill="white"/>
</clipPath>
</defs>
</svg>
