<svg width="32" height="26" viewBox="0 0 32 26" fill="none" xmlns="http://www.w3.org/2000/svg">
<g clip-path="url(#clip0_1180_448)">
<path d="M12.6702 0.000419181L5.9256 6.79858L7.2518 8.15886L13.9964 1.3607L12.6702 0.000419181Z" fill="white"/>
<path d="M19.6704 0.0321551L18.3326 1.38062L25.0186 8.23837L26.3564 6.88991L19.6704 0.0321551Z" fill="white"/>
<path d="M31.9758 12.3269L0 12.1846L0.02422 6.49316L32 6.63271L31.9758 12.3269ZM1.88378 10.2774L30.1001 10.3978V8.53442L1.89992 8.41676L1.88378 10.2774Z" fill="white"/>
<path d="M27.3417 26.0027L4.82515 25.9014L2.30627 11.4074L4.16314 11.0736L6.40484 23.9943L25.7593 24.0791L27.9714 11.1913L29.8256 11.5196L27.3417 26.0027Z" fill="white"/>
<path d="M10.1974 14.6696L10.1689 21.3077L12.0526 21.3161L12.0811 14.678L10.1974 14.6696Z" fill="white"/>
<path d="M15.0734 14.7247L15.0449 21.3628L16.9287 21.3712L16.9572 14.733L15.0734 14.7247Z" fill="white"/>
<path d="M19.9494 14.7879L19.921 21.426L21.8047 21.4344L21.8332 14.7963L19.9494 14.7879Z" fill="white"/>
</g>
<defs>
<clipPath id="clip0_1180_448">
<rect width="32" height="26" fill="white"/>
</clipPath>
</defs>
</svg>
