<svg width="26" height="11" viewBox="0 0 26 11" fill="none" xmlns="http://www.w3.org/2000/svg">
<path d="M6.062 4.246C6.07133 3.85867 6.03167 3.49467 5.943 3.154C5.859 2.80867 5.70267 2.531 5.474 2.321C5.25 2.10633 4.93267 1.999 4.522 1.999C3.92 1.999 3.49067 2.279 3.234 2.839C2.982 3.39433 2.856 4.204 2.856 5.268C2.856 6.262 3.02167 7.00867 3.353 7.508C3.689 8.00733 4.16267 8.257 4.774 8.257C5.25933 8.257 5.69567 8.15433 6.083 7.949C6.475 7.74367 6.832 7.51967 7.154 7.277C7.37333 7.42633 7.58567 7.63867 7.791 7.914C8.001 8.18933 8.13167 8.45767 8.183 8.719C7.91233 8.985 7.57633 9.23233 7.175 9.461C6.77833 9.685 6.33967 9.86467 5.859 10C5.37833 10.14 4.879 10.21 4.361 10.21C3.62833 10.21 3.01233 10.0677 2.513 9.783C2.01833 9.49367 1.624 9.111 1.33 8.635C1.036 8.15433 0.823667 7.62233 0.693 7.039C0.567 6.451 0.504 5.856 0.504 5.254C0.504 4.08267 0.688333 3.126 1.057 2.384C1.43033 1.642 1.92733 1.096 2.548 0.746C3.16867 0.396 3.85233 0.220999 4.599 0.220999C5.32233 0.220999 5.95233 0.349333 6.489 0.606C7.03033 0.862666 7.448 1.21033 7.742 1.649C8.04067 2.08767 8.19 2.58233 8.19 3.133C8.19 3.567 8.07567 3.882 7.847 4.078C7.623 4.26933 7.31033 4.365 6.909 4.365C6.74567 4.365 6.59633 4.35333 6.461 4.33C6.33033 4.30667 6.19733 4.27867 6.062 4.246ZM11.8423 10C11.6556 10.0327 11.4573 10.0537 11.2473 10.063C11.0419 10.077 10.8646 10.084 10.7153 10.084C10.5799 10.084 10.4049 10.077 10.1903 10.063C9.97558 10.0537 9.77725 10.0327 9.59525 10V0.438C9.77725 0.405333 9.97558 0.384333 10.1903 0.374999C10.4049 0.361 10.5799 0.354 10.7153 0.354C10.8646 0.354 11.0419 0.361 11.2473 0.374999C11.4573 0.384333 11.6556 0.405333 11.8423 0.438V3.112C11.8423 3.308 11.8399 3.483 11.8353 3.637C11.8306 3.78633 11.8283 3.95667 11.8283 4.148C11.9263 4.148 12.0406 4.14567 12.1713 4.141C12.3066 4.13633 12.4256 4.134 12.5283 4.134H14.1453C14.2433 4.134 14.3576 4.13633 14.4883 4.141C14.6236 4.14567 14.7426 4.148 14.8453 4.148C14.8453 3.95667 14.8429 3.78633 14.8383 3.637C14.8336 3.483 14.8313 3.308 14.8313 3.112V0.438C15.0179 0.405333 15.2139 0.384333 15.4193 0.374999C15.6246 0.361 15.8019 0.354 15.9513 0.354C16.0866 0.354 16.2616 0.361 16.4763 0.374999C16.6956 0.384333 16.8939 0.405333 17.0713 0.438V10C16.8799 10.0327 16.6886 10.0537 16.4973 10.063C16.3059 10.077 16.1333 10.084 15.9793 10.084C15.8206 10.084 15.6363 10.077 15.4263 10.063C15.2209 10.0537 15.0226 10.0327 14.8313 10V7.032C14.8313 6.836 14.8336 6.661 14.8383 6.507C14.8429 6.353 14.8453 6.18267 14.8453 5.996C14.7426 5.996 14.6236 5.99833 14.4883 6.003C14.3576 6.00767 14.2433 6.01 14.1453 6.01H12.5283C12.4256 6.01 12.3066 6.00767 12.1713 6.003C12.0406 5.99833 11.9263 5.996 11.8283 5.996C11.8283 6.18267 11.8306 6.353 11.8353 6.507C11.8399 6.661 11.8423 6.836 11.8423 7.032V10ZM21.4536 10C21.2622 10.0327 21.0686 10.0537 20.8726 10.063C20.6812 10.077 20.5086 10.084 20.3546 10.084C20.2006 10.084 20.0186 10.077 19.8086 10.063C19.5986 10.0537 19.3979 10.0327 19.2066 10V0.521999L19.3046 0.438H25.2896C25.3222 0.559333 25.3456 0.701666 25.3596 0.865C25.3782 1.02367 25.3876 1.16833 25.3876 1.299C25.3876 1.663 25.2872 1.92667 25.0866 2.09C24.8906 2.25333 24.5919 2.335 24.1906 2.335H22.4406C22.2632 2.335 22.0929 2.335 21.9296 2.335C21.7662 2.335 21.6052 2.33267 21.4466 2.328C21.4466 2.51933 21.4466 2.70833 21.4466 2.895C21.4512 3.077 21.4536 3.25667 21.4536 3.434V4.323C21.5469 4.323 21.6356 4.323 21.7196 4.323H24.4356C24.4776 4.449 24.5079 4.603 24.5266 4.785C24.5452 4.96233 24.5546 5.11167 24.5546 5.233C24.5546 5.359 24.5452 5.51067 24.5266 5.688C24.5079 5.86533 24.4776 6.02167 24.4356 6.157H21.7196C21.6356 6.157 21.5469 6.157 21.4536 6.157V10Z" fill="#333333"/>
</svg>
