<svg width="24" height="26" viewBox="0 0 24 26" fill="none" xmlns="http://www.w3.org/2000/svg">
<g clip-path="url(#clip0_16_856)">
<path d="M9.51463 19.8271C7.63281 19.8271 5.79326 19.2452 4.22859 18.155C2.66392 17.0648 1.4444 15.5153 0.724262 13.7023C0.00412253 11.8894 -0.184299 9.8945 0.182825 7.9699C0.549949 6.04529 1.45613 4.27743 2.78677 2.88987C4.11742 1.5023 5.81276 0.55736 7.65842 0.174532C9.50408 -0.208296 11.4171 -0.0118144 13.1557 0.73913C14.8943 1.49007 16.3803 2.76175 17.4258 4.39335C18.4712 6.02496 19.0293 7.9432 19.0293 9.90551C19.0293 12.5369 18.0268 15.0605 16.2425 16.9212C14.4581 18.7818 12.0381 19.8271 9.51463 19.8271V19.8271ZM9.51463 1.87704C7.98883 1.87704 6.4973 2.34885 5.22865 3.2328C3.96 4.11674 2.9712 5.37313 2.3873 6.84308C1.80341 8.31303 1.65063 9.93052 1.9483 11.491C2.24597 13.0515 2.98071 14.4849 4.05961 15.61C5.13851 16.735 6.51312 17.5012 8.00959 17.8116C9.50607 18.122 11.0572 17.9627 12.4669 17.3538C13.8765 16.7449 15.0814 15.7138 15.9291 14.3909C16.7767 13.068 17.2292 11.5127 17.2292 9.9216C17.2292 7.78805 16.4164 5.74189 14.9696 4.23324C13.5229 2.72459 11.5607 1.87704 9.51463 1.87704" fill="#3A3A3A"/>
<path d="M5.15843 14.0243C4.27685 13.0093 3.74709 11.7154 3.65386 10.3494C3.56062 8.98339 3.90929 7.62425 4.64413 6.48926L6.13561 7.54041C5.62745 8.32743 5.38678 9.26929 5.45204 10.2156C5.51729 11.162 5.88471 12.0582 6.49562 12.7613L5.15843 14.0243Z" fill="#3A3A3A"/>
<path d="M15.7365 16.056L14.4636 17.3832L22.7262 25.9992L23.999 24.6719L15.7365 16.056Z" fill="#3A3A3A"/>
</g>
<defs>
<clipPath id="clip0_16_856">
<rect width="24" height="26" fill="white"/>
</clipPath>
</defs>
</svg>
