<svg width="28" height="26" viewBox="0 0 28 26" fill="none" xmlns="http://www.w3.org/2000/svg">
<path d="M13.5 16.9871C11.8585 16.9871 10.2538 16.489 8.88896 15.5557C7.52408 14.6224 6.46029 13.2959 5.8321 11.7439C5.20391 10.1919 5.03955 8.48414 5.3598 6.83655C5.68004 5.18896 6.47052 3.67555 7.63125 2.48771C8.79199 1.29986 10.2709 0.490931 11.8808 0.163205C13.4908 -0.164521 15.1596 0.00368012 16.6762 0.646537C18.1928 1.28939 19.489 2.37803 20.401 3.77479C21.313 5.17155 21.7998 6.81369 21.7998 8.49356C21.7969 10.7453 20.9215 12.9039 19.3656 14.4961C17.8098 16.0884 15.7004 16.9842 13.5 16.9871ZM13.5 1.95447C12.2362 1.95447 11.0008 2.33798 9.95002 3.05651C8.89922 3.77503 8.08021 4.7963 7.59658 5.99116C7.11295 7.18602 6.98641 8.50081 7.23296 9.76927C7.47952 11.0377 8.08809 12.2029 8.98173 13.1174C9.87537 14.0319 11.0139 14.6547 12.2534 14.907C13.4929 15.1593 14.7777 15.0298 15.9453 14.5349C17.1129 14.04 18.1109 13.2018 18.813 12.1265C19.5151 11.0511 19.8899 9.78687 19.8899 8.49356C19.8877 6.75997 19.2138 5.09801 18.016 3.87217C16.8181 2.64634 15.1941 1.95669 13.5 1.95447Z" fill="#3A3A3A"/>
<path d="M0 26L0.414713 24.7156C1.32431 21.9018 3.07675 19.4525 5.42337 17.7154C7.77 15.9783 10.5916 15.0416 13.4878 15.0382C16.384 15.0348 19.2077 15.9648 21.5582 17.6964C23.9087 19.428 25.6667 21.8732 26.5826 24.6849L27.0109 25.9665L0 26ZM13.5027 16.9899C11.2356 16.9872 9.01538 17.6503 7.10556 18.9005C5.19575 20.1507 3.67657 21.9354 2.72838 24.0427L24.2825 24.012C23.329 21.9099 21.807 20.1314 19.8966 18.8869C17.9862 17.6425 15.7674 16.9841 13.5027 16.9899Z" fill="#3A3A3A"/>
</svg>
